<?xml version="1.0" encoding="utf-8"?>
<!-- Generator: Adobe Illustrator 21.0.0, SVG Export Plug-In . SVG Version: 6.00 Build 0)  -->
<svg version="1.1" id="Layer_1" xmlns="http://www.w3.org/2000/svg" xmlns:xlink="http://www.w3.org/1999/xlink" x="0px" y="0px"
	 viewBox="0 0 509 906" style="enable-background:new 0 0 509 906;" xml:space="preserve">
<style type="text/css">
	.st0{fill:#5E5E5E;}
	.st1{font-family:'Corbel';}
	.st2{font-size:326.2083px;}
	.st3{font-size:80.2413px;}
</style>
<g>
	<g>
		<path class="st0" d="M496.1,526.6c-3-16.2-6-32.4-8.9-48.6c-5-27.3-10-54.6-15.1-81.9c-0.5-2.5-0.5-4.1,3-4.1
			c7.3,0.1,8.5-1.3,8.5-8.7c0-12.9,0-25.7,0-38.6c0-16.5,0-33,0-49.5c0-7.3-1.5-8.7-8.6-8.8c-6.2,0-12.5-0.2-18.7,0.1
			c-3.3,0.1-4.7-1.1-5-4.3c-0.2-2.4-0.8-4.9-1.2-7.3c-0.8-4.4-0.7-4.5,3.9-4.5c6.9,0,13.8,0,20.6,0c7.5,0,8.9-1.4,8.9-8.8
			c0-29.2,0-58.4,0-87.6c0-8.2-1-9.1-9.2-9.1c-51.5,0-103.1,0-154.6,0.1c-3.9,0-5.3-1.1-5.1-5.1c0.3-7.7,0.1-15.3,0.1-23
			c0-5.5-1.4-7.1-6.8-7c-2.9,0-8.3-0.6-12.2-0.4c-3,0.1-3.6-0.5-3.5-3.2c0.1-6.2,0-12.5,0-18.7c0-2.5-0.4-5.1-3-5.8
			c-3.2-0.9-3.3-2.9-3.4-5.5C285,72.7,262,57.2,240,65.4c-12.8,4.8-21.4,17.6-21.5,31.9c0,1.5,1,3.5-1.7,4c-3.6,0.6-4.7,3.2-4.6,6.6
			c0.1,6-0.1,11.9,0.1,17.9c0.1,3-0.8,4.3-3.9,4.1c-3.9-0.2-7.8-0.1-11.7,0c-5.4,0.1-6.9,1.6-6.9,7c0,7.7,0,15.3,0,23
			c0,5,0,5-5.2,5.1c-2.9,0-5.7,0-8.6,0c-49.3,0-98.6,0-148,0c-5.5,0-7.1,1.7-7.1,7.3c0,30.1,0,60.2,0,90.4c0,6.2,1.8,7.9,7.9,7.9
			c7.7,0,15.3,0,23,0c2.6,0,3.5,0.9,2.9,3.6c-0.7,2.9-1.4,5.8-1.7,8.8c-0.3,3.1-1.9,3.8-4.7,3.7c-7-0.1-14-0.1-21,0
			c-4.3,0-5.9,1.6-6.3,5.7c-0.1,1.2-0.1,2.3-0.1,3.5c0,26.2,0,52.5,0,78.7c0,3.9-0.1,7.8,0.1,11.7c0.1,3.2,1.5,5.4,5,5.9
			c2.1,0.3,5-1,6.2,0.8c1.3,1.9-0.5,4.5-0.6,6.8c-0.1,0.8-0.3,1.5-0.4,2.3c-7.6,41.3-15.2,82.7-22.7,124c-1.3,7,0.5,9.2,7.5,9.2
			c13.6,0.1,27.3,0.1,40.9,0c6.8,0,8.1-1.3,9.3-7.8c3.2-17.9,6.5-35.7,9.6-53.6c0.5-2.8,1.7-3.9,4.7-3.8
			c8.4,0.2,342.2,0.1,342.2,0.1s5.4,0,6.4,5.4c3.2,17.6,6.5,35.2,9.8,52.8c1,5.6,2.4,6.9,8,6.9c14.1,0.1,28.3,0.1,42.4,0
			C495.4,535.1,497.3,532.7,496.1,526.6z M469.1,296.8c2.5,0,4.2,0.4,4.2,3.6c-0.1,21.4,0,42.8-0.1,64.2c0,0.3-0.2,0.7-0.6,1.7
			c-2.2-3.8-4.1-7.1-6-10.4c-10.6-18.3-21.2-36.6-31.8-54.9c-2.1-3.6-1.8-4.1,2.3-4.1C447.8,296.8,458.4,296.8,469.1,296.8z
			 M281.8,256.9c1.1,2,1.2,2.9-1.5,3.2c-5.5,0.5-9.4-0.4-12.6-6.2c-13.7-24.7-28-49.1-42.2-73.6c-3.6-6.3-3-5.5,4.1-5.6
			c3.5-0.9,5.6,1.1,7.6,4.6C251.9,205.3,266.9,231.1,281.8,256.9z M249.4,174.7c3.4,0.1,6.7,0,10.1,0c10.9-0.5,15.2,2.7,19.8,11.1
			c13,23.6,26.8,46.8,40.3,70.1c2.1,3.6,1.9,4-2.4,4c-6.1,0-12.2-0.1-18.3,0c-2.5,0.1-4.1-0.9-5.3-3.1
			c-12.1-21.1-24.3-42.2-36.5-63.3c-3.1-5.4-6.1-10.8-9.4-16.1C246.4,175.3,246.9,174.7,249.4,174.7z M385.3,270.4c6,0,6,0,7.2,5.9
			c2,10.1,2,10.1-8.4,10.1h-132c-45.7,0-91.3,0-137,0c-5.1,0-5.1,0-4.1-5.2c2.1-10.8,2.1-10.8,13.1-10.8H385.3z M165.7,305.9
			c-1.2-2.1-2.5-4.3-3.7-6.4c-0.8-1.6-0.3-2.3,1.5-2.6c6.7-1.1,9.1-0.1,12.4,5.6c14.2,24.6,28.4,49.2,42.6,73.8
			c0.9,1.5,3,3.1,2.1,4.7c-0.9,1.7-3.4,0.3-5,0.7c-4-0.4-7.3-2.1-9.3-5.6C192.7,352.6,179.2,329.2,165.7,305.9z M194.9,381.7
			c-7.3,0-14.5,0-21.8,0c-1.8,0-2.7-1.3-3.5-2.7c-15.1-26.2-30.2-52.3-45.3-78.5c-2-3.5-1.9-3.6,2.3-3.7c3.1,0,6.2,0,9.3,0
			c10.5-0.5,14.9,3,19.4,11.2c12.8,23.2,26.3,45.9,39.5,68.8c0.5,0.8,0.9,1.6,1.3,2.4C197,380.6,196.9,381.7,194.9,381.7z
			 M189.3,305.5c-1.2-2-2.3-4-3.5-6.1c-1.2-2.1-0.4-2.8,1.7-2.8c3.4,0,6.7,0,10.1,0c10.8-1.4,15.3,3.1,20,11.5
			c12.9,23.5,26.6,46.6,40,69.8c2,3.6,2,3.7-2.1,3.7c-6,0-11.9-0.1-17.9,0c-3.1,0.1-5-1.2-6.5-3.8
			C217.2,353.8,203.3,329.7,189.3,305.5z M224.7,300.6c-2-3.5-1.8-3.5,2.2-3.9c5.5-0.6,8.8,1.3,11.6,6.4
			c13.8,24.7,28.1,49,42.2,73.5c2.9,5,2.9,5-2.9,5.1H276c-3.5,0.9-5.4-1.3-7.3-4.6C254.1,351.6,239.4,326.1,224.7,300.6z
			 M248.5,300.4c-1.8-3.2-1.6-3.6,2.3-3.6c6.2-0.1,12.5,0,18.7,0c2.1,0,3.6,0.4,4.8,2.5c7,12.6,14.1,25.1,21.4,37.5
			c8,13.7,15.9,27.5,24.1,41.2c0.6,1,1.7,1.9,1.1,3.1c-0.7,1.3-2.1,0.7-3.2,0.7c-3.1,0-6.2,0-9.3,0c-10.7,0.5-14.7-2.5-19.2-10.8
			C275.9,347.2,262,323.9,248.5,300.4z M304.6,331.7c-5.9-10.3-11.9-20.6-17.8-30.9c-2.1-3.6-1.8-3.6,2.4-4.1
			c5.5-0.6,8.5,1.5,11.3,6.3c13.7,24.4,27.8,48.6,41.8,72.9c3.3,5.8,3.3,5.8-3.7,5.8c-4.1,0.5-5.9-1.3-7.9-4.9
			C322.1,361.7,313.3,346.7,304.6,331.7z M328.1,330.8c-5.9-10.2-11.7-20.5-17.7-30.7c-1.6-2.7-1.1-3.6,2-3.4c3.2,0.2,6.5,0,9.7,0
			c0,0,0,0,0,0h0.8c12.1,0,12,0.1,18.1,10.6c13.3,23.2,26.7,46.3,40.1,69.4c0.5,0.8,0.9,1.6,1.4,2.4c1.1,1.9,0.4,2.6-1.6,2.6
			c-7,0-14,0-21,0c-2.4,0-3.4-1.6-4.4-3.3C346.4,362.5,337.2,346.7,328.1,330.8z M349.6,302.1c-3.1-5.3-3-5.3,3.9-5.3
			c4.1-1.1,6.3,1.5,8.4,5.3c14.4,25.2,29,50.4,43.5,75.5c2.3,4,2.3,3.7-2.4,4.1c-4.9,0.4-8.1-0.9-10.7-5.5
			C378.3,351.5,363.9,326.8,349.6,302.1z M114.3,303c13.7,24.4,27.9,48.5,41.8,72.8c0.4,0.7,0.8,1.3,1.2,2c2,3.6,1.8,3.8-2.1,3.9
			c-0.7,0-1.3,0-2.5,0c-4.1,1.4-6.1-1.3-8.2-5c-14.4-25.3-29.1-50.5-43.6-75.8c-2.2-3.9-2.1-3.7,2.5-4.2
			C108.7,296.1,111.6,298.3,114.3,303z M102,273.7c-1.9,12.7-1.8,12.7-14.7,12.8h-6.2c-5.2,0-10.4-0.1-15.6,0c-2.3,0-3.1-0.8-2.6-3
			c0.7-3.4,1.3-6.9,1.9-10.3c0.4-2,1.5-2.8,3.6-2.8c10.2,0,20.5,0,30.7,0C101.5,270.4,102.4,271.1,102,273.7z M63.6,296.8
			c6.9,0,13.8,0.1,20.6,0c2.8,0,3.7,2,4.8,3.9c14.2,24.6,28.3,49.2,42.6,73.8c4.5,7.8,4.6,7.2-4,7.2c-2,0-3.9,0-5.8,0c0,0,0,0,0,0
			c-1.7,0-3.4-0.1-5,0c-5.2,0.5-8.7-1.6-11.3-6.5c-6.6-12.2-13.7-24.1-20.7-36.1c-1-1.7-12.5-21.7-13.3-23.1
			c-3.2-5.5-6.4-11-9.6-16.5C60.6,297.5,61.5,296.8,63.6,296.8z M234.3,392H408c5.7,0,5.7,0,6.7,5.5c1.6,8.9,3.2,17.9,4.8,26.8
			c0.8,4.6,0.7,4.6-4.1,4.6c-38.9,0-77.9,0-116.8,0H89.4c-5.4,0-5.4,0-4.5-5.3c1.6-9.1,3.4-18.1,4.9-27.2c0.6-3.6,2.1-4.5,5.6-4.5
			C141.7,392.1,188,392,234.3,392z M413.2,371.1c-12.8-23.5-26.7-46.6-40.1-69.8c-2.5-4.3-2.4-4.5,2.6-4.5c5.8,0,11.7,0.1,17.5,0
			c2.4,0,4.1,0.7,5.4,2.9c10.3,18.1,20.8,36.2,31.2,54.3c4.7,8.2,9.4,16.4,14.3,24.5c1.5,2.6,1,3.4-1.9,3.3c-3.4-0.1-6.7,0-11.7,0
			C421.5,382.2,417.6,379.4,413.2,371.1z M405,270.4c10.2,0,20.5,0,30.7,0c2.3,0,3.3,1.1,3.7,3.1c0.6,3.3,1.1,6.7,1.8,10
			c0.5,2.2-0.3,3-2.6,3c-5.2-0.1-10.4,0-15.6,0c-5,0-10.1-0.1-15.2,0c-2.3,0.1-3.6-0.7-3.9-3.2c-0.4-3.2-1-6.4-1.8-9.5
			C401.7,271.2,402.7,270.4,405,270.4z M411.9,302.5c-0.9-1.5-2.8-3.2-2-4.8c1-2,3.5-0.6,5.3-0.8c4.3-0.6,6.5,1.3,8.5,4.8
			c14.4,25.3,29.1,50.5,43.7,75.8c2.3,3.9,2.1,3.8-2.5,4.3c-5.6,0.6-8.5-1.6-11.2-6.5C440,350.9,425.9,326.7,411.9,302.5z
			 M435.9,174.7c11.3,0.1,22.6,0.1,33.8,0c2.5,0,3.5,0.9,3.5,3.4c-0.1,21.9,0,43.8,0,65.7c-0.3,0.1-0.6,0.2-0.8,0.3
			c-4.3-7.5-8.6-15-12.9-22.5c-8.4-14.6-16.8-29.2-25.3-43.7C432.6,175.3,433,174.7,435.9,174.7z M412.9,174.7
			c5.7-0.7,8.8,1.6,11.6,6.6c13.8,24.4,27.9,48.6,41.9,72.8c3.4,5.9,3.3,6-3.9,6c-3.6,0.9-5.7-1.3-7.6-4.7
			c-14.7-25.7-29.5-51.2-44.3-76.8C408.6,175.1,408.8,175.2,412.9,174.7z M374.4,174.7c6.4,0.2,12.7,0.1,19.1,0c2.4,0,3.8,0.8,5,2.9
			c14.8,25.9,29.7,51.7,44.5,77.6c2.8,4.8,2.7,4.9-2.8,4.9h-7.8c-10.8,1.2-14.7-2.5-19.2-10.7c-13.1-23.8-27-47.3-40.7-70.8
			C370.9,175.9,370.7,174.6,374.4,174.7z M347.4,175.5c1.4-1.7,3.7-0.3,5.4-0.7c4.6-1,6.7,1.4,8.8,5.1
			c14.5,25.4,29.2,50.8,43.9,76.1c0.6,1.1,2,2.2,1.2,3.4c-0.8,1.2-2.4,0.4-3.7,0.6c-5.5,1-8.5-1.5-11.2-6.3
			c-14.2-25.2-28.8-50.1-43.3-75.2C348,177.6,346.7,176.4,347.4,175.5z M312,174.7c3.4,0.1,6.8,0,11.7,0c9.8-0.5,12.9,2.6,17.3,10.6
			c13.2,23.8,27.1,47.2,40.7,70.8c2.1,3.6,1.9,3.9-2,3.9c-6.2,0-12.4-0.1-18.7,0.1c-2.5,0-4.1-0.8-5.3-3
			c-15.2-26.4-30.4-52.8-45.7-79.2C308.5,175.2,309.2,174.6,312,174.7z M328.5,230.1c5.1,8.8,10.1,17.5,15.2,26.3
			c1.9,3.3,1.7,3.2-2,3.8c-6,0.8-9.2-1.5-12.2-6.8c-14.1-25.2-28.8-50.2-43.2-75.2c-0.5-0.9-1.4-1.6-1.1-3.2h9.5
			c2.1,0,2.8,1.6,3.7,3C308.4,195.3,318.4,212.7,328.5,230.1z M251.8,73.4c13.5,0.1,24.1,10.9,23.6,24c-0.1,2.9-1.3,3.8-4,3.7
			c-6.5-0.1-12.9,0-19.4,0c-6.5,0-12.9-0.1-19.4,0c-2.6,0-3.6-0.9-3.8-3.6C228.1,83.9,239.9,73.3,251.8,73.4z M222,125.9
			c0.2-3.6,0.1-7.3,0-10.9c-0.1-2.4,0.7-3.6,3.3-3.6c17.9,0.1,35.8,0,53.6,0c2.6,0,3.4,1.2,3.3,3.6c-0.1,3.8-0.2,7.5,0,11.3
			c0.1,2.8-1.1,3.6-3.7,3.5c-8.8-0.1-17.6,0-26.4,0c-8.7,0-17.4-0.1-26,0C223.1,129.9,221.8,129.1,222,125.9z M199.9,160.3
			c0.3-5.6,0.1-11.2,0-16.7c-0.1-2.8,0.9-3.9,3.8-3.9c32.3,0.1,64.6,0.1,97,0c2.7,0,3.8,0.9,3.7,3.6c-0.1,5.6-0.2,11.2,0,16.7
			c0.2,3.7-1,5-4.8,4.9c-16-0.2-31.9-0.1-47.9-0.1c-15.7,0-31.4-0.1-47.1,0.1C201.1,164.9,199.7,164,199.9,160.3z M187.8,174.7
			c3.4,0.1,6.8,0,11.8,0c6.9-0.5,12.9,2.5,17.3,10.6c13.2,24,27.1,47.6,40.9,71.3c1.4,2.4,1.8,3.6-1.8,3.6c-6.4-0.1-12.7-0.1-19.1,0
			c-2.5,0-4.1-1-5.3-3.1c-15.2-26.3-30.4-52.6-45.6-78.8C184.7,175.8,184.7,174.6,187.8,174.7z M161.4,175.3c0.7-1.2,2.7-0.3,4-0.6
			c5.2-0.9,8,1.4,10.6,6c13.9,24.6,28.2,49,42.3,73.5c1,1.6,3.1,3.4,2.2,5.1c-1,1.8-3.6,0.4-5.4,0.7c-4.4,1.1-6.6-1.2-8.6-4.8
			c-14.4-25.3-29.1-50.6-43.6-75.8C162.2,178.1,160.5,176.8,161.4,175.3z M130.2,174.7h5.5c10.9-1.5,15.2,3.2,19.8,11.6
			c12.8,23.3,26.4,46.1,39.7,69.2c2.6,4.5,2.6,4.6-2.8,4.6c-5.7,0-11.4-0.1-17.1,0c-2.8,0.1-4.5-0.9-5.9-3.4
			c-14.4-25.1-28.9-50.1-43.3-75.2C122.2,174.8,122.3,174.7,130.2,174.7z M104.6,174.7c4.4-0.3,6.7,1.4,8.8,5.2
			c14.1,24.9,28.6,49.7,42.9,74.5c3.3,5.7,3.2,5.7-3.8,5.7c-3.2,0.7-5.6-0.7-7.5-4.1c-14.4-25.2-29-50.3-43.5-75.5
			C98.2,174.8,98.3,175,104.6,174.7z M63.3,174.7c6.8,0.1,13.5,0.1,20.2,0c2.5,0,3.7,1.3,4.8,3.2c13.3,23,26.6,46,39.9,69
			c2.4,4.1,4.6,8.3,7.3,13c-8.6,0-16.6,0-24.6,0c-1.7,0-2.4-1.4-3.1-2.6c-15.4-26.6-30.7-53.3-46.1-79.8
			C60.3,175.2,60.8,174.7,63.3,174.7z M42.9,175c3.7-0.6,5.9,0.2,7.9,3.7C65.4,204.4,80.3,230,95,255.6c0.3,0.4,0.5,0.9,0.8,1.4
			c1.8,2.5,0.9,3.4-1.9,3.1c-0.9-0.1-1.8,0-3.4,0c-3.7,1-5.9-1.2-7.9-4.8c-14-25.2-28.2-50.2-42.3-75.3
			C38,175.6,38.1,175.8,42.9,175z M35.2,260.1c-2.6,0-4.2-0.4-4.2-3.6c0.1-23.4,0-46.7,0.1-70.1c0-0.4,0.2-0.7,0.4-1.7
			c5,8.8,9.7,17,14.3,25.3c8.6,15.4,17.3,30.8,25.9,46.2c2,3.6,1.9,3.7-2.3,3.7C58,260.1,46.6,260,35.2,260.1z M41.1,296.8
			c5-0.6,8.6,0.4,10.9,5.6c1.9,4.4,19.5,34.9,19.5,34.9s17.7,29.9,22.5,38.4c0.9,1.6,3.1,3.3,2.2,5.1c-1,1.9-3.6,0.5-5.3,0.9
			c-4,0.9-6.1-1-8-4.5c-5.2-9.7-10.8-19.2-16.3-28.8c-2-3.6-10.8-18.7-11.1-19.1l0,0c0,0-10.7-19.7-16.2-29.3
			C38,297.7,38.7,297.1,41.1,296.8z M31,378.3c0.1-23.3,0.1-46.7,0.1-70c0-0.2,0.2-0.4,0.5-1.3c9.1,16.2,18,31.9,26.8,47.6
			c4.4,7.8,8.8,15.6,13.2,23.3c1.6,2.7,1.4,3.8-2.1,3.8c-11.5-0.1-23.1,0-34.6,0C32.6,381.8,31,381.3,31,378.3z M70.9,443.2
			c-4.6,25.4-9.3,50.8-13.9,76.2c-1,5.4-0.9,5.4-6.4,5.4c-8.9,0-17.9,0-26.9,0c-4.5,0-5-0.6-4.2-5c3.8-20.9,7.7-41.8,11.5-62.7
			c3.7-20,7.4-40,10.9-60.1c0.6-3.7,1.9-5.4,5.9-5.1c4.5,0.4,9.1,0.1,13.6,0.1c4.9,0,9.9,0.2,14.8-0.1c3.1-0.2,3.8,1,3.2,3.8
			C76.7,411.6,73.8,427.4,70.9,443.2z M422.7,459.6c-1.2,0-2.3,0-3.5,0h-167v-0.1c-32.4,0-64.9,0-97.3,0c-23.7,0-47.5,0.1-71.2,0.1
			c-5.1,0-5.2-0.1-4.3-5c0.7-4.1,1.6-8.2,2.2-12.3c0.4-2.5,1.4-3.5,4.1-3.5c20.6,0.1,41.3-0.1,61.9,0.2c8.2,0.1,16.6,1,24.6,0.6
			c9.6-0.5,19.3-0.6,28.9-0.7c66.4-0.2,132.9-0.1,199.3-0.1c5.1,0,10.1,0.1,15.1,0c1.7,0,3.1,1.8,5.1,0.4c0.8-0.6,1.8,1,2,2.3
			c0.9,5,1.9,9.9,2.8,14.9C425.9,458.7,424.8,459.6,422.7,459.6z M480.2,524.8c-8.9,0-17.9-0.2-26.9,0.1c-3.9,0.1-5.4-1.2-6.1-5
			c-5.4-30.3-11-60.5-16.5-90.7c-2-10.8-4-21.7-6-32.5c-0.8-4.6-0.9-4.6,3.7-4.6c4.8,0,9.6,0,14.4,0c4.8,0,9.6,0.1,14.4,0
			c2.8-0.1,4.1,0.8,4.6,3.7c4.2,23.5,8.5,47,12.9,70.4c3.3,17.7,6.5,35.5,9.8,53.2C485.5,524.8,485.6,524.8,480.2,524.8z"/>
		<path class="st0" d="M257.7,27.5c0,2.8,0.1,5.7,0,8.5c-0.2,3-1.5,5.3-4.9,5.4c-3.5,0.1-5-2.1-5.2-5.1c-0.2-5.9-0.2-11.9,0-17.9
			c0.1-2.9,1.5-5.4,5-5.3c3.5,0.2,5,2.5,5.1,5.7C257.8,21.8,257.7,24.6,257.7,27.5C257.7,27.5,257.7,27.5,257.7,27.5z"/>
		<path class="st0" d="M203.9,67.5c0,3.4-3.2,6.1-6.4,4.7c-6.3-2.7-12.2-6.4-17.8-10.2c-2-1.4-2.3-3.7-1.1-5.9
			c1.3-2.5,3.8-3.3,6-2.2c6,3.1,11.8,6.5,17.5,10C203.3,64.5,203.9,66,203.9,67.5z"/>
		<path class="st0" d="M306.6,72.5c-2.4-0.1-4.1-1.1-4.9-3.3c-0.8-2.1-0.4-4,1.3-5.2c5.5-3.9,11.3-7.3,17.3-10.1
			c2.5-1.2,4.9-0.3,6.3,2.3c1.2,2.2,0.8,4.5-1.2,5.9c-5.6,3.8-11.3,7.2-17.4,10.1C307.5,72.4,307,72.4,306.6,72.5z"/>
		<path class="st0" d="M292.8,38.3c-2.2,4.3-4.1,9.5-8.2,13.2c-1.6,1.4-3.7,1.2-5.4-0.2c-1.7-1.3-2.5-3.1-1.8-5.2
			c1.6-4.4,4.1-8.4,7-12.1c1.3-1.7,3.3-2,5.3-1.1C291.6,33.9,292.5,35.5,292.8,38.3z"/>
		<path class="st0" d="M228,47.8c-0.2,2.2-1.5,3.5-3.5,4.2c-2.2,0.8-4.3,0.1-5.5-1.8c-2.2-3.5-4.3-7.1-6.2-10.8
			c-1.1-2.1-0.4-4.1,1.4-5.6c1.5-1.3,3.2-1.6,5.1-0.8C221.7,34.2,228.2,45.2,228,47.8z"/>
	</g>
	<g>
		<text transform="matrix(1 0 0 1 -0.1277 743.687)" class="st0 st1 st2">404</text>
		<text transform="matrix(1 0 0 1 -0.1272 880.9932)" class="st0 st1 st3">page not found</text>
	</g>
</g>
</svg>
